<svg id="visual" viewBox="0 0 1280 610" width="1280" height="610" xmlns="http://www.w3.org/2000/svg" xmlns:xlink="http://www.w3.org/1999/xlink" version="1.1"><rect x="0" y="0" width="1280" height="610" fill="#001220"></rect><path d="M0 459L30.5 460.3C61 461.7 122 464.3 183 473.3C244 482.3 305 497.7 366 504.2C427 510.7 488 508.3 548.8 502.3C609.7 496.3 670.3 486.7 731.2 484.2C792 481.7 853 486.3 914 490.2C975 494 1036 497 1097 491.8C1158 486.7 1219 473.3 1249.5 466.7L1280 460L1280 611L1249.5 611C1219 611 1158 611 1097 611C1036 611 975 611 914 611C853 611 792 611 731.2 611C670.3 611 609.7 611 548.8 611C488 611 427 611 366 611C305 611 244 611 183 611C122 611 61 611 30.5 611L0 611Z" fill="#0066ff"></path><path d="M0 542L30.5 535.2C61 528.3 122 514.7 183 509.7C244 504.7 305 508.3 366 512.7C427 517 488 522 548.8 526.8C609.7 531.7 670.3 536.3 731.2 531.5C792 526.7 853 512.3 914 512.2C975 512 1036 526 1097 532C1158 538 1219 536 1249.5 535L1280 534L1280 611L1249.5 611C1219 611 1158 611 1097 611C1036 611 975 611 914 611C853 611 792 611 731.2 611C670.3 611 609.7 611 548.8 611C488 611 427 611 366 611C305 611 244 611 183 611C122 611 61 611 30.5 611L0 611Z" fill="#8b96ff"></path><path d="M0 544L30.5 542.5C61 541 122 538 183 536.5C244 535 305 535 366 540.5C427 546 488 557 548.8 562C609.7 567 670.3 566 731.2 561.5C792 557 853 549 914 542.8C975 536.7 1036 532.3 1097 532.5C1158 532.7 1219 537.3 1249.5 539.7L1280 542L1280 611L1249.5 611C1219 611 1158 611 1097 611C1036 611 975 611 914 611C853 611 792 611 731.2 611C670.3 611 609.7 611 548.8 611C488 611 427 611 366 611C305 611 244 611 183 611C122 611 61 611 30.5 611L0 611Z" fill="#c9c9ff"></path><path d="M0 560L30.5 563.5C61 567 122 574 183 576.3C244 578.7 305 576.3 366 572C427 567.7 488 561.3 548.8 560.8C609.7 560.3 670.3 565.7 731.2 565.8C792 566 853 561 914 559C975 557 1036 558 1097 559C1158 560 1219 561 1249.5 561.5L1280 562L1280 611L1249.5 611C1219 611 1158 611 1097 611C1036 611 975 611 914 611C853 611 792 611 731.2 611C670.3 611 609.7 611 548.8 611C488 611 427 611 366 611C305 611 244 611 183 611C122 611 61 611 30.5 611L0 611Z" fill="#ffffff"></path></svg>