<svg id="visual" viewBox="0 0 1280 720" width="1280" height="720" xmlns="http://www.w3.org/2000/svg" xmlns:xlink="http://www.w3.org/1999/xlink" version="1.1"><rect x="0" y="0" width="1280" height="720" fill="#001220"></rect><path d="M0 482L30.5 484.8C61 487.7 122 493.3 183 495.7C244 498 305 497 366 499C427 501 488 506 548.8 509.3C609.7 512.7 670.3 514.3 731.2 513C792 511.7 853 507.3 914 501.5C975 495.7 1036 488.3 1097 490.5C1158 492.7 1219 504.3 1249.5 510.2L1280 516L1280 721L1249.5 721C1219 721 1158 721 1097 721C1036 721 975 721 914 721C853 721 792 721 731.2 721C670.3 721 609.7 721 548.8 721C488 721 427 721 366 721C305 721 244 721 183 721C122 721 61 721 30.5 721L0 721Z" fill="#0066ff"></path><path d="M0 571L30.5 563.2C61 555.3 122 539.7 183 529.8C244 520 305 516 366 522.3C427 528.7 488 545.3 548.8 551.7C609.7 558 670.3 554 731.2 555.8C792 557.7 853 565.3 914 571.7C975 578 1036 583 1097 579.5C1158 576 1219 564 1249.5 558L1280 552L1280 721L1249.5 721C1219 721 1158 721 1097 721C1036 721 975 721 914 721C853 721 792 721 731.2 721C670.3 721 609.7 721 548.8 721C488 721 427 721 366 721C305 721 244 721 183 721C122 721 61 721 30.5 721L0 721Z" fill="#617dff"></path><path d="M0 580L30.5 577.3C61 574.7 122 569.3 183 568.8C244 568.3 305 572.7 366 569.2C427 565.7 488 554.3 548.8 551.2C609.7 548 670.3 553 731.2 556.7C792 560.3 853 562.7 914 565.2C975 567.7 1036 570.3 1097 572C1158 573.7 1219 574.3 1249.5 574.7L1280 575L1280 721L1249.5 721C1219 721 1158 721 1097 721C1036 721 975 721 914 721C853 721 792 721 731.2 721C670.3 721 609.7 721 548.8 721C488 721 427 721 366 721C305 721 244 721 183 721C122 721 61 721 30.5 721L0 721Z" fill="#8b96ff"></path><path d="M0 628L30.5 624C61 620 122 612 183 611.8C244 611.7 305 619.3 366 621.2C427 623 488 619 548.8 610.7C609.7 602.3 670.3 589.7 731.2 588C792 586.3 853 595.7 914 604.5C975 613.3 1036 621.7 1097 626.2C1158 630.7 1219 631.3 1249.5 631.7L1280 632L1280 721L1249.5 721C1219 721 1158 721 1097 721C1036 721 975 721 914 721C853 721 792 721 731.2 721C670.3 721 609.7 721 548.8 721C488 721 427 721 366 721C305 721 244 721 183 721C122 721 61 721 30.5 721L0 721Z" fill="#acafff"></path><path d="M0 606L30.5 612.8C61 619.7 122 633.3 183 634.7C244 636 305 625 366 620.5C427 616 488 618 548.8 620.5C609.7 623 670.3 626 731.2 630.7C792 635.3 853 641.7 914 643.3C975 645 1036 642 1097 641.7C1158 641.3 1219 643.7 1249.5 644.8L1280 646L1280 721L1249.5 721C1219 721 1158 721 1097 721C1036 721 975 721 914 721C853 721 792 721 731.2 721C670.3 721 609.7 721 548.8 721C488 721 427 721 366 721C305 721 244 721 183 721C122 721 61 721 30.5 721L0 721Z" fill="#c9c9ff"></path><path d="M0 678L30.5 673.7C61 669.3 122 660.7 183 654.5C244 648.3 305 644.7 366 647.2C427 649.7 488 658.3 548.8 660.8C609.7 663.3 670.3 659.7 731.2 660.5C792 661.3 853 666.7 914 665.8C975 665 1036 658 1097 651.8C1158 645.7 1219 640.3 1249.5 637.7L1280 635L1280 721L1249.5 721C1219 721 1158 721 1097 721C1036 721 975 721 914 721C853 721 792 721 731.2 721C670.3 721 609.7 721 548.8 721C488 721 427 721 366 721C305 721 244 721 183 721C122 721 61 721 30.5 721L0 721Z" fill="#e5e4ff"></path><path d="M0 698L30.5 694C61 690 122 682 183 679.8C244 677.7 305 681.3 366 681.2C427 681 488 677 548.8 674C609.7 671 670.3 669 731.2 669C792 669 853 671 914 676C975 681 1036 689 1097 690.5C1158 692 1219 687 1249.5 684.5L1280 682L1280 721L1249.5 721C1219 721 1158 721 1097 721C1036 721 975 721 914 721C853 721 792 721 731.2 721C670.3 721 609.7 721 548.8 721C488 721 427 721 366 721C305 721 244 721 183 721C122 721 61 721 30.5 721L0 721Z" fill="#ffffff"></path></svg>